<!-- icon666.com - MILLIONS vector ICONS FREE --><svg id="Layer_1" viewBox="0 0 64 64" xmlns="http://www.w3.org/2000/svg" data-name="Layer 1"><path d="m58 13v38a1.00229 1.00229 0 0 1 -1 1h-54a1.003 1.003 0 0 1 -1-1v-38a1.003 1.003 0 0 1 1-1h54a1.003 1.003 0 0 1 1 1z" fill="#fff"></path><path d="m61.95 20.26a.29156.29156 0 0 0 -.02.09 1.19073 1.19073 0 0 1 -.22.33l-15.95 15.95-21.63-15.14 16.99-16.99 2.2-2.21a.98584.98584 0 0 1 1-.24.93977.93977 0 0 1 .42.24l16.97 16.97a1.18961 1.18961 0 0 1 .22.33.29186.29186 0 0 0 .02.09.82715.82715 0 0 1 0 .58z" fill="#f78c8c"></path><path d="m25 52h10v10h-10z" fill="#f78c8c"></path><path d="m61.93 19.59a2.97353 2.97353 0 0 0 -.86-1.74l-5.85-5.85h-.77l-9.71-9.71a.93977.93977 0 0 0 -.42-.24.98584.98584 0 0 0 -1 .24l-2.2 2.21-7.5 7.5h-30.62a1.003 1.003 0 0 0 -1 1v1h24.74l-4.48 4.48-.13-.1a.50665.50665 0 0 0 -.16-.09 1.97494 1.97494 0 0 0 -2.64.54 2.00939 2.00939 0 0 0 .45 2.79l28.36 20.52a2.00191 2.00191 0 0 0 2.2.09 1.78409 1.78409 0 0 0 .59-.54 1.99148 1.99148 0 0 0 -.45-2.79l-3.61-2.61 7.08-7.07v20.78h-51.95v1a1.003 1.003 0 0 0 1 1h22v2h5.95v6h-5.95v2h9.78a3 3 0 0 0 .17-1v-7h.05v-2h22a.99851.99851 0 0 0 .92-.61 2.56645 2.56645 0 0 0 .03-.39v-25.78l3.12-3.12a2.99956 2.99956 0 0 0 .86-1.75.29156.29156 0 0 1 .02-.09 5.60521 5.60521 0 0 0 0-.58.29186.29186 0 0 1 -.02-.09zm-27.53-7.59 7.58-7.59 1.03 1.03 6.56 6.56 7.97 7.97-12.99 12.98-.96.96-18.04-13.05z" opacity=".1"></path><circle cx="10" cy="44" fill="#f78c8c" r="2"></circle><g fill="none"><path d="m42.3288 31.52026 3.3081 2.39368.10309-.103-3.32452-2.41784c-.03223.04043-.05317.08755-.08667.12716z"></path><path d="m52.529 38.90088a1.9997 1.9997 0 1 1 -2.34455 3.24012l-28.35816-20.51917a1.99972 1.99972 0 0 1 2.34461-3.24012l.13843.10016 4.47729-4.47987h-24.78686v35.99855h51.99682v-20.78546l-7.07794 7.07342z"></path><path d="m26.998 54h6v6h-6z"></path><path d="m27.59131 20.85657 11.48352 8.3092c.04022-.03833.06952-.08417.10559-.12549l-4.18042-3.04028 4.18042 3.04028a1.99683 1.99683 0 0 0 -.10223-2.70044l-1.41449-1.41449a5.99131 5.99131 0 0 1 7.70544-9.12347l.77893-.77893a1.99968 1.99968 0 0 1 2.82793 2.82805l-.70562.70569 2.1206 2.12085a1.9997 1.9997 0 0 1 -2.828 2.828l-4.23944-4.23956a2.00229 2.00229 0 1 0 -2.82354 2.83967l1.40173 1.4018a6.01191 6.01191 0 0 1 .51374 7.88562l3.32453 2.41784 13.84765-13.83941-15.56006-15.56043z"></path></g><path d="m41.75373 23.69241-1.40173-1.4018a2.00229 2.00229 0 1 1 2.82355-2.83972l4.23945 4.23956a1.9997 1.9997 0 1 0 2.828-2.828l-2.12062-2.12085.70563-.70569a1.99968 1.99968 0 1 0 -2.82794-2.828l-.77894.77893a5.99131 5.99131 0 0 0 -7.70544 9.12347l1.41449 1.41449a1.99682 1.99682 0 0 1 .10223 2.70044l3.23505 2.35276a6.0119 6.0119 0 0 0 -.51373-7.88559z" fill="#fff"></path><path d="m63.12018 17.84753-16.96869-16.96905a3.00787 3.00787 0 0 0 -4.24878 0l-9.11853 9.12366h-29.78424a3 3 0 0 0 -2.99994 3v37.99823a3 3 0 0 0 2.99994 3h19.99866v6.99963a3 3 0 0 0 2.99994 3h7.99926a3 3 0 0 0 2.99994-3v-6.99963h19.99866a3 3 0 0 0 2.99994-3v-25.7826l3.12317-3.12121a3.00408 3.00408 0 0 0 .00067-4.24903zm-30.12218 42.15259h-5.99965v-5.99975h5.99965zm22.99859-9.99957h-51.99683v-35.99855h24.78686l-4.47729 4.47986-.13843-.10016a1.99972 1.99972 0 0 0 -2.34461 3.24012l28.35816 20.51918a1.9997 1.9997 0 1 0 2.34455-3.24012l-3.61035-2.61237 7.07794-7.07342zm-10.25659-16.18964.26.18909-.26-.18909-.10309.103-18.0456-13.05734 16.43628-16.4455 15.56006 15.56043z" fill="#4d4d4d"></path></svg>