<!-- icon666.com - MILLIONS vector ICONS FREE --><svg viewBox="0 0 176 176" xmlns="http://www.w3.org/2000/svg" xmlns:xlink="http://www.w3.org/1999/xlink"><linearGradient id="linear-gradient" gradientUnits="userSpaceOnUse" x1="5.86" x2="170.14" y1="5.86" y2="170.14"><stop offset="0" stop-color="#f55244"></stop><stop offset=".87" stop-color="#d90b09"></stop><stop offset="1" stop-color="#d50000"></stop></linearGradient><linearGradient id="linear-gradient-2" gradientUnits="userSpaceOnUse" x1="15.51" x2="160.49" y1="15.51" y2="160.49"><stop offset="0" stop-color="#d50000"></stop><stop offset=".13" stop-color="#d90b09"></stop><stop offset="1" stop-color="#f55244"></stop></linearGradient><linearGradient id="linear-gradient-3" gradientUnits="userSpaceOnUse" x1="73.53" x2="90.21" y1="79.67" y2="96.36"><stop offset="0" stop-color="#d50000"></stop><stop offset=".65" stop-color="#d60101" stop-opacity=".34"></stop><stop offset="1" stop-color="#d60101" stop-opacity="0"></stop></linearGradient><linearGradient id="linear-gradient-4" x1="83.68" x2="160.53" xlink:href="#linear-gradient-3" y1="83.6" y2="160.44"></linearGradient><g id="Layer_2" data-name="Layer 2"><g id="Color"><g id="_02.YouTube" data-name="02.YouTube"><g id="Background"><rect fill="url(#linear-gradient)" height="176" rx="20" width="176"></rect><rect fill="url(#linear-gradient-2)" height="152" rx="12" width="152" x="12" y="12"></rect></g><g id="Shadow"><path d="m98.54 88.03-21.08 12.23v-24.52z" fill="url(#linear-gradient-3)"></path><path d="m164 104.27v47.73a12 12 0 0 1 -12 12h-47.56l-50.58-50.58a15 15 0 0 0 9.27 3.17h49.74a15.13 15.13 0 0 0 15.13-15.14v-26.9a15.08 15.08 0 0 0 -4.26-10.55z" fill="url(#linear-gradient-4)"></path></g><path id="Icon" d="m112.87 59.41h-49.74a15.13 15.13 0 0 0 -15.13 15.14v26.9a15.13 15.13 0 0 0 15.13 15.14h49.74a15.13 15.13 0 0 0 15.13-15.14v-26.9a15.13 15.13 0 0 0 -15.13-15.14zm-35.41 40.85v-24.52l21.08 12.26z" fill="#fff"></path></g></g></g></svg>